<svg width="353" height="354" viewBox="0 0 353 354" fill="none" xmlns="http://www.w3.org/2000/svg">
<mask id="mask0_186_1726" style="mask-type:alpha" maskUnits="userSpaceOnUse" x="0" y="0" width="353" height="354">
<path d="M353 177C353 274.754 273.978 354 176.5 354C79.0217 354 0 274.754 0 177C0 79.2456 79.0217 0 176.5 0C273.978 0 353 79.2456 353 177Z" fill="#D9D9D9"/>
</mask>
<g mask="url(#mask0_186_1726)">
<path d="M4.646 19.6183C3.90062 19.8668 3.22623 20.6193 3.07005 21.3788C2.7648 22.8412 4.22717 24.3036 5.68953 23.9983C6.78985 23.7711 7.64172 22.6495 7.53523 21.5918C7.45715 20.8464 6.89634 20.0797 6.18645 19.7319C5.75342 19.526 5.08613 19.4763 4.646 19.6183Z" fill="#EBEBEB"/>
<path d="M29.1606 19.6183C28.4153 19.8668 27.7409 20.6193 27.5847 21.3788C27.2794 22.8412 28.7418 24.3036 30.2042 23.9983C31.3045 23.7711 32.1564 22.6495 32.0499 21.5918C31.9718 20.8464 31.411 20.0797 30.7011 19.7319C30.2681 19.526 29.6008 19.4763 29.1606 19.6183Z" fill="#EBEBEB"/>
<path d="M53.6753 19.6183C52.9299 19.8668 52.2555 20.6193 52.0993 21.3788C51.7941 22.8412 53.2565 24.3036 54.7188 23.9983C55.8192 23.7711 56.671 22.6495 56.5645 21.5918C56.4864 20.8464 55.9256 20.0797 55.2157 19.7319C54.7827 19.526 54.1154 19.4763 53.6753 19.6183Z" fill="#EBEBEB"/>
<path d="M78.1899 19.6183C77.4446 19.8668 76.7702 20.6193 76.614 21.3788C76.3087 22.8412 77.7711 24.3036 79.2335 23.9983C80.3338 23.7711 81.1857 22.6495 81.0792 21.5918C81.0011 20.8464 80.4403 20.0797 79.7304 19.7319C79.2974 19.526 78.6301 19.4763 78.1899 19.6183Z" fill="#EBEBEB"/>
<path d="M102.705 19.6183C101.959 19.8668 101.285 20.6193 101.129 21.3788C100.823 22.8412 102.286 24.3036 103.748 23.9983C104.848 23.7711 105.7 22.6495 105.594 21.5918C105.516 20.8464 104.955 20.0797 104.245 19.7319C103.812 19.526 103.145 19.4763 102.705 19.6183Z" fill="#EBEBEB"/>
<path d="M127.219 19.6183C126.474 19.8668 125.799 20.6193 125.643 21.3788C125.338 22.8412 126.8 24.3036 128.263 23.9983C129.363 23.7711 130.215 22.6495 130.108 21.5918C130.03 20.8464 129.47 20.0797 128.76 19.7319C128.327 19.526 127.659 19.4763 127.219 19.6183Z" fill="#EBEBEB"/>
<path d="M151.734 19.6183C150.989 19.8668 150.314 20.6193 150.158 21.3788C149.853 22.8412 151.315 24.3036 152.777 23.9983C153.878 23.7711 154.73 22.6495 154.623 21.5918C154.545 20.8464 153.984 20.0797 153.274 19.7319C152.841 19.526 152.174 19.4763 151.734 19.6183Z" fill="#EBEBEB"/>
<path d="M176.249 19.6183C175.503 19.8668 174.829 20.6193 174.673 21.3788C174.367 22.8412 175.83 24.3036 177.292 23.9983C178.392 23.7711 179.244 22.6495 179.138 21.5918C179.06 20.8464 178.499 20.0797 177.789 19.7319C177.356 19.526 176.689 19.4763 176.249 19.6183Z" fill="#EBEBEB"/>
<path d="M4.646 44.1198C3.90062 44.3682 3.22623 45.1207 3.07005 45.8803C2.7648 47.3427 4.22717 48.805 5.68953 48.4998C6.78985 48.2726 7.64172 47.151 7.53523 46.0933C7.45715 45.3479 6.89634 44.5812 6.18645 44.2334C5.75342 44.0275 5.08613 43.9778 4.646 44.1198Z" fill="#EBEBEB"/>
<path d="M29.1606 44.1198C28.4153 44.3682 27.7409 45.1207 27.5847 45.8803C27.2794 47.3427 28.7418 48.805 30.2042 48.4998C31.3045 48.2726 32.1564 47.151 32.0499 46.0933C31.9718 45.3479 31.411 44.5812 30.7011 44.2334C30.2681 44.0275 29.6008 43.9778 29.1606 44.1198Z" fill="#EBEBEB"/>
<path d="M53.6753 44.1198C52.9299 44.3682 52.2555 45.1207 52.0993 45.8803C51.7941 47.3427 53.2565 48.805 54.7188 48.4998C55.8192 48.2726 56.671 47.151 56.5645 46.0933C56.4864 45.3479 55.9256 44.5812 55.2157 44.2334C54.7827 44.0275 54.1154 43.9778 53.6753 44.1198Z" fill="#EBEBEB"/>
<path d="M78.1899 44.1198C77.4446 44.3682 76.7702 45.1207 76.614 45.8803C76.3087 47.3427 77.7711 48.805 79.2335 48.4998C80.3338 48.2726 81.1857 47.151 81.0792 46.0933C81.0011 45.3479 80.4403 44.5812 79.7304 44.2334C79.2974 44.0275 78.6301 43.9778 78.1899 44.1198Z" fill="#EBEBEB"/>
<path d="M102.705 44.1198C101.959 44.3682 101.285 45.1207 101.129 45.8803C100.823 47.3427 102.286 48.805 103.748 48.4998C104.848 48.2726 105.7 47.151 105.594 46.0933C105.516 45.3479 104.955 44.5812 104.245 44.2334C103.812 44.0275 103.145 43.9778 102.705 44.1198Z" fill="#EBEBEB"/>
<path d="M127.219 44.1198C126.474 44.3682 125.799 45.1207 125.643 45.8803C125.338 47.3427 126.8 48.805 128.263 48.4998C129.363 48.2726 130.215 47.151 130.108 46.0933C130.03 45.3479 129.47 44.5812 128.76 44.2334C128.327 44.0275 127.659 43.9778 127.219 44.1198Z" fill="#EBEBEB"/>
<path d="M151.734 44.1198C150.989 44.3682 150.314 45.1207 150.158 45.8803C149.853 47.3427 151.315 48.805 152.777 48.4998C153.878 48.2726 154.73 47.151 154.623 46.0933C154.545 45.3479 153.984 44.5812 153.274 44.2334C152.841 44.0275 152.174 43.9778 151.734 44.1198Z" fill="#EBEBEB"/>
<path d="M176.249 44.1198C175.503 44.3682 174.829 45.1207 174.673 45.8803C174.367 47.3427 175.83 48.805 177.292 48.4998C178.392 48.2726 179.244 47.151 179.138 46.0933C179.06 45.3479 178.499 44.5812 177.789 44.2334C177.356 44.0275 176.689 43.9778 176.249 44.1198Z" fill="#EBEBEB"/>
<path d="M4.646 68.6212C3.90062 68.8697 3.22623 69.6222 3.07005 70.3818C2.7648 71.8441 4.22717 73.3065 5.68953 73.0012C6.78985 72.7741 7.64172 71.6525 7.53523 70.5947C7.45715 69.8493 6.89634 69.0827 6.18645 68.7348C5.75342 68.529 5.08613 68.4793 4.646 68.6212Z" fill="#EBEBEB"/>
<path d="M29.1606 68.6212C28.4153 68.8697 27.7409 69.6222 27.5847 70.3818C27.2794 71.8441 28.7418 73.3065 30.2042 73.0012C31.3045 72.7741 32.1564 71.6525 32.0499 70.5947C31.9718 69.8493 31.411 69.0827 30.7011 68.7348C30.2681 68.529 29.6008 68.4793 29.1606 68.6212Z" fill="#EBEBEB"/>
<path d="M53.6753 68.6212C52.9299 68.8697 52.2555 69.6222 52.0993 70.3818C51.7941 71.8441 53.2565 73.3065 54.7188 73.0012C55.8192 72.7741 56.671 71.6525 56.5645 70.5947C56.4864 69.8493 55.9256 69.0827 55.2157 68.7348C54.7827 68.529 54.1154 68.4793 53.6753 68.6212Z" fill="#EBEBEB"/>
<path d="M78.1899 68.6212C77.4446 68.8697 76.7702 69.6222 76.614 70.3818C76.3087 71.8441 77.7711 73.3065 79.2335 73.0012C80.3338 72.7741 81.1857 71.6525 81.0792 70.5947C81.0011 69.8493 80.4403 69.0827 79.7304 68.7348C79.2974 68.529 78.6301 68.4793 78.1899 68.6212Z" fill="#EBEBEB"/>
<path d="M102.705 68.6212C101.959 68.8697 101.285 69.6222 101.129 70.3818C100.823 71.8441 102.286 73.3065 103.748 73.0012C104.848 72.7741 105.7 71.6525 105.594 70.5947C105.516 69.8493 104.955 69.0827 104.245 68.7348C103.812 68.529 103.145 68.4793 102.705 68.6212Z" fill="#EBEBEB"/>
<path d="M127.219 68.6212C126.474 68.8697 125.799 69.6222 125.643 70.3818C125.338 71.8441 126.8 73.3065 128.263 73.0012C129.363 72.7741 130.215 71.6525 130.108 70.5947C130.03 69.8493 129.47 69.0827 128.76 68.7348C128.327 68.529 127.659 68.4793 127.219 68.6212Z" fill="#EBEBEB"/>
<path d="M151.734 68.6212C150.989 68.8697 150.314 69.6222 150.158 70.3818C149.853 71.8441 151.315 73.3065 152.777 73.0012C153.878 72.7741 154.73 71.6525 154.623 70.5947C154.545 69.8493 153.984 69.0827 153.274 68.7348C152.841 68.529 152.174 68.4793 151.734 68.6212Z" fill="#EBEBEB"/>
<path d="M176.249 68.6212C175.503 68.8697 174.829 69.6222 174.673 70.3818C174.367 71.8441 175.83 73.3065 177.292 73.0012C178.392 72.7741 179.244 71.6525 179.138 70.5947C179.06 69.8493 178.499 69.0827 177.789 68.7348C177.356 68.529 176.689 68.4793 176.249 68.6212Z" fill="#EBEBEB"/>
<path d="M4.64658 93.1356C3.9012 93.3841 3.22681 94.1366 3.07064 94.8961C2.89317 95.7267 3.2978 96.6283 4.07868 97.1607C4.83825 97.686 5.70431 97.6931 6.47099 97.182C7.72749 96.3443 7.89786 94.7826 6.84723 93.739C6.24383 93.1285 5.37777 92.8943 4.64658 93.1356Z" fill="#EBEBEB"/>
<path d="M29.1534 93.1356C28.408 93.3841 27.7336 94.1366 27.5775 94.8961C27.4 95.7267 27.8046 96.6283 28.5855 97.1607C29.3451 97.686 30.2112 97.6931 30.9778 97.182C32.2343 96.3443 32.4047 94.7826 31.3541 93.739C30.7507 93.1285 29.8846 92.8943 29.1534 93.1356Z" fill="#EBEBEB"/>
<path d="M53.6584 93.136C52.5865 93.4909 51.8624 94.6693 52.0824 95.7057C52.2599 96.5505 53.0479 97.3385 53.8926 97.516C55.2627 97.807 56.6896 96.5079 56.5476 95.1094C56.4695 94.3641 55.9087 93.5974 55.1988 93.2495C54.7658 93.0437 54.0985 92.994 53.6584 93.136Z" fill="#EBEBEB"/>
<path d="M78.173 93.136C77.1011 93.4909 76.377 94.6693 76.5971 95.7057C76.7746 96.5505 77.5625 97.3385 78.4073 97.516C79.7774 97.807 81.2042 96.5079 81.0623 95.1094C80.9842 94.3641 80.4234 93.5974 79.7135 93.2495C79.2805 93.0437 78.6132 92.994 78.173 93.136Z" fill="#EBEBEB"/>
<path d="M102.688 93.136C101.616 93.4909 100.892 94.6693 101.112 95.7057C101.289 96.5505 102.077 97.3385 102.922 97.516C104.292 97.807 105.719 96.5079 105.577 95.1094C105.499 94.3641 104.938 93.5974 104.228 93.2495C103.795 93.0437 103.128 92.994 102.688 93.136Z" fill="#EBEBEB"/>
<path d="M127.202 93.136C126.13 93.4909 125.406 94.6693 125.626 95.7057C125.804 96.5505 126.592 97.3385 127.437 97.516C128.807 97.807 130.234 96.5079 130.092 95.1094C130.013 94.3641 129.453 93.5974 128.743 93.2495C128.31 93.0437 127.642 92.994 127.202 93.136Z" fill="#EBEBEB"/>
<path d="M151.718 93.1359C150.973 93.3843 150.298 94.1368 150.142 94.8964C149.837 96.3588 151.299 97.8211 152.762 97.5159C153.862 97.2887 154.714 96.1671 154.607 95.1094C154.529 94.364 153.969 93.5973 153.259 93.2495C152.826 93.0436 152.158 92.9939 151.718 93.1359Z" fill="#EBEBEB"/>
<path d="M176.233 93.1359C175.488 93.3843 174.813 94.1368 174.657 94.8964C174.352 96.3588 175.814 97.8211 177.276 97.5159C178.377 97.2887 179.229 96.1671 179.122 95.1094C179.044 94.364 178.483 93.5973 177.773 93.2495C177.34 93.0436 176.673 92.9939 176.233 93.1359Z" fill="#EBEBEB"/>
<path d="M4.64658 117.654C3.9012 117.902 3.22681 118.655 3.07064 119.414C2.89317 120.245 3.2978 121.146 4.07868 121.679C4.83825 122.204 5.70431 122.211 6.47099 121.7C7.72749 120.862 7.89786 119.301 6.84723 118.257C6.24383 117.647 5.37777 117.412 4.64658 117.654Z" fill="#EBEBEB"/>
<path d="M29.1534 117.654C28.408 117.902 27.7336 118.655 27.5775 119.414C27.4 120.245 27.8046 121.146 28.5855 121.679C29.3451 122.204 30.2112 122.211 30.9778 121.7C32.2343 120.862 32.4047 119.301 31.3541 118.257C30.7507 117.647 29.8846 117.412 29.1534 117.654Z" fill="#EBEBEB"/>
<path d="M53.6584 117.654C52.5865 118.008 51.8624 119.187 52.0824 120.223C52.2599 121.068 53.0479 121.856 53.8926 122.034C55.2627 122.325 56.6896 121.025 56.5476 119.627C56.4695 118.882 55.9087 118.115 55.1988 117.767C54.7658 117.561 54.0985 117.512 53.6584 117.654Z" fill="#EBEBEB"/>
<path d="M78.173 117.654C77.1011 118.008 76.377 119.187 76.5971 120.223C76.7746 121.068 77.5625 121.856 78.4073 122.034C79.7774 122.325 81.2042 121.025 81.0623 119.627C80.9842 118.882 80.4234 118.115 79.7135 117.767C79.2805 117.561 78.6132 117.512 78.173 117.654Z" fill="#EBEBEB"/>
<path d="M102.688 117.654C101.616 118.008 100.892 119.187 101.112 120.223C101.289 121.068 102.077 121.856 102.922 122.034C104.292 122.325 105.719 121.025 105.577 119.627C105.499 118.882 104.938 118.115 104.228 117.767C103.795 117.561 103.128 117.512 102.688 117.654Z" fill="#EBEBEB"/>
<path d="M127.202 117.654C126.13 118.008 125.406 119.187 125.626 120.223C125.804 121.068 126.592 121.856 127.437 122.034C128.807 122.325 130.234 121.025 130.092 119.627C130.013 118.882 129.453 118.115 128.743 117.767C128.31 117.561 127.642 117.512 127.202 117.654Z" fill="#EBEBEB"/>
<path d="M151.718 117.654C150.973 117.902 150.298 118.655 150.142 119.414C149.837 120.877 151.299 122.339 152.762 122.034C153.862 121.807 154.714 120.685 154.607 119.627C154.529 118.882 153.969 118.115 153.259 117.768C152.826 117.562 152.158 117.512 151.718 117.654Z" fill="#EBEBEB"/>
<path d="M176.233 117.654C175.488 117.902 174.813 118.655 174.657 119.414C174.352 120.877 175.814 122.339 177.276 122.034C178.377 121.807 179.229 120.685 179.122 119.627C179.044 118.882 178.483 118.115 177.773 117.768C177.34 117.562 176.673 117.512 176.233 117.654Z" fill="#EBEBEB"/>
<path d="M4.64658 142.172C3.9012 142.42 3.22681 143.173 3.07064 143.932C2.89317 144.763 3.2978 145.664 4.07868 146.197C4.83825 146.722 5.70431 146.729 6.47099 146.218C7.72749 145.38 7.89786 143.819 6.84723 142.775C6.24383 142.165 5.37777 141.93 4.64658 142.172Z" fill="#EBEBEB"/>
<path d="M29.1534 142.172C28.408 142.42 27.7336 143.173 27.5775 143.932C27.4 144.763 27.8046 145.664 28.5855 146.197C29.3451 146.722 30.2112 146.729 30.9778 146.218C32.2343 145.38 32.4047 143.819 31.3541 142.775C30.7507 142.165 29.8846 141.93 29.1534 142.172Z" fill="#EBEBEB"/>
<path d="M53.6597 142.172C52.9143 142.42 52.2399 143.173 52.0837 143.933C51.7785 145.395 53.2408 146.857 54.7032 146.552C55.8035 146.325 56.6554 145.203 56.5489 144.146C56.4708 143.4 55.91 142.633 55.2001 142.286C54.7671 142.08 54.0998 142.03 53.6597 142.172Z" fill="#EBEBEB"/>
<path d="M78.1743 142.172C77.4289 142.42 76.7545 143.173 76.5984 143.933C76.2931 145.395 77.7555 146.857 79.2179 146.552C80.3182 146.325 81.17 145.203 81.0636 144.146C80.9855 143.4 80.4247 142.633 79.7148 142.286C79.2817 142.08 78.6144 142.03 78.1743 142.172Z" fill="#EBEBEB"/>
<path d="M102.689 142.172C101.944 142.42 101.269 143.173 101.113 143.933C100.808 145.395 102.27 146.857 103.732 146.552C104.833 146.325 105.685 145.203 105.578 144.146C105.5 143.4 104.939 142.633 104.229 142.286C103.796 142.08 103.129 142.03 102.689 142.172Z" fill="#EBEBEB"/>
<path d="M127.204 142.172C126.458 142.42 125.784 143.173 125.628 143.933C125.322 145.395 126.785 146.857 128.247 146.552C129.347 146.325 130.199 145.203 130.093 144.146C130.015 143.4 129.454 142.633 128.744 142.286C128.311 142.08 127.644 142.03 127.204 142.172Z" fill="#EBEBEB"/>
<path d="M151.718 142.172C150.973 142.42 150.298 143.173 150.142 143.933C149.837 145.395 151.299 146.857 152.762 146.552C153.862 146.325 154.714 145.203 154.607 144.146C154.529 143.4 153.969 142.633 153.259 142.286C152.826 142.08 152.158 142.03 151.718 142.172Z" fill="#EBEBEB"/>
<path d="M176.233 142.172C175.488 142.42 174.813 143.173 174.657 143.933C174.352 145.395 175.814 146.857 177.276 146.552C178.377 146.325 179.229 145.203 179.122 144.146C179.044 143.4 178.483 142.633 177.773 142.286C177.34 142.08 176.673 142.03 176.233 142.172Z" fill="#EBEBEB"/>
<path d="M4.646 166.677C3.90062 166.925 3.22623 167.678 3.07005 168.437C2.7648 169.9 4.22717 171.362 5.68953 171.057C6.78985 170.83 7.64172 169.708 7.53523 168.65C7.45715 167.905 6.89634 167.138 6.18645 166.79C5.75342 166.585 5.08613 166.535 4.646 166.677Z" fill="#EBEBEB"/>
<path d="M29.1606 166.677C28.4153 166.925 27.7409 167.678 27.5847 168.437C27.2794 169.9 28.7418 171.362 30.2042 171.057C31.3045 170.83 32.1564 169.708 32.0499 168.65C31.9718 167.905 31.411 167.138 30.7011 166.79C30.2681 166.585 29.6008 166.535 29.1606 166.677Z" fill="#EBEBEB"/>
<path d="M53.6753 166.677C52.9299 166.925 52.2555 167.678 52.0993 168.437C51.7941 169.9 53.2565 171.362 54.7188 171.057C55.8192 170.83 56.671 169.708 56.5645 168.65C56.4864 167.905 55.9256 167.138 55.2157 166.79C54.7827 166.585 54.1154 166.535 53.6753 166.677Z" fill="#EBEBEB"/>
<path d="M78.1899 166.677C77.4446 166.925 76.7702 167.678 76.614 168.437C76.3087 169.9 77.7711 171.362 79.2335 171.057C80.3338 170.83 81.1857 169.708 81.0792 168.65C81.0011 167.905 80.4403 167.138 79.7304 166.79C79.2974 166.585 78.6301 166.535 78.1899 166.677Z" fill="#EBEBEB"/>
<path d="M102.705 166.677C101.959 166.925 101.285 167.678 101.129 168.437C100.823 169.9 102.286 171.362 103.748 171.057C104.848 170.83 105.7 169.708 105.594 168.65C105.516 167.905 104.955 167.138 104.245 166.79C103.812 166.585 103.145 166.535 102.705 166.677Z" fill="#EBEBEB"/>
<path d="M127.219 166.677C126.474 166.925 125.799 167.678 125.643 168.437C125.338 169.9 126.8 171.362 128.263 171.057C129.363 170.83 130.215 169.708 130.108 168.65C130.03 167.905 129.47 167.138 128.76 166.79C128.327 166.585 127.659 166.535 127.219 166.677Z" fill="#EBEBEB"/>
<path d="M151.734 166.677C150.989 166.925 150.314 167.678 150.158 168.437C149.853 169.9 151.315 171.362 152.777 171.057C153.878 170.83 154.73 169.708 154.623 168.65C154.545 167.905 153.984 167.138 153.274 166.79C152.841 166.585 152.174 166.535 151.734 166.677Z" fill="#EBEBEB"/>
<path d="M176.249 166.677C175.503 166.925 174.829 167.678 174.673 168.437C174.367 169.9 175.83 171.362 177.292 171.057C178.392 170.83 179.244 169.708 179.138 168.65C179.06 167.905 178.499 167.138 177.789 166.79C177.356 166.585 176.689 166.535 176.249 166.677Z" fill="#EBEBEB"/>
<path d="M4.646 191.093C3.90062 191.342 3.22623 192.094 3.07005 192.854C2.7648 194.316 4.22717 195.779 5.68953 195.473C6.78985 195.246 7.64172 194.125 7.53523 193.067C7.45715 192.322 6.89634 191.555 6.18645 191.207C5.75342 191.001 5.08613 190.951 4.646 191.093Z" fill="#EBEBEB"/>
<path d="M29.1606 191.093C28.4153 191.342 27.7409 192.094 27.5847 192.854C27.2794 194.316 28.7418 195.779 30.2042 195.473C31.3045 195.246 32.1564 194.125 32.0499 193.067C31.9718 192.322 31.411 191.555 30.7011 191.207C30.2681 191.001 29.6008 190.951 29.1606 191.093Z" fill="#EBEBEB"/>
<path d="M53.6753 191.093C52.9299 191.342 52.2555 192.094 52.0993 192.854C51.7941 194.316 53.2565 195.779 54.7188 195.473C55.8192 195.246 56.671 194.125 56.5645 193.067C56.4864 192.322 55.9256 191.555 55.2157 191.207C54.7827 191.001 54.1154 190.951 53.6753 191.093Z" fill="#EBEBEB"/>
<path d="M78.1899 191.093C77.4446 191.342 76.7702 192.094 76.614 192.854C76.3087 194.316 77.7711 195.779 79.2335 195.473C80.3338 195.246 81.1857 194.125 81.0792 193.067C81.0011 192.322 80.4403 191.555 79.7304 191.207C79.2974 191.001 78.6301 190.951 78.1899 191.093Z" fill="#EBEBEB"/>
<path d="M102.705 191.093C101.959 191.342 101.285 192.094 101.129 192.854C100.823 194.316 102.286 195.779 103.748 195.473C104.848 195.246 105.7 194.125 105.594 193.067C105.516 192.322 104.955 191.555 104.245 191.207C103.812 191.001 103.145 190.951 102.705 191.093Z" fill="#EBEBEB"/>
<path d="M127.219 191.093C126.474 191.342 125.799 192.094 125.643 192.854C125.338 194.316 126.8 195.779 128.263 195.473C129.363 195.246 130.215 194.125 130.108 193.067C130.03 192.322 129.47 191.555 128.76 191.207C128.327 191.001 127.659 190.951 127.219 191.093Z" fill="#EBEBEB"/>
<path d="M151.734 191.094C150.989 191.342 150.315 192.095 150.159 192.854C149.981 193.685 150.386 194.586 151.167 195.119C151.926 195.644 152.792 195.651 153.559 195.14C154.815 194.302 154.986 192.741 153.935 191.697C153.332 191.087 152.466 190.852 151.734 191.094Z" fill="#EBEBEB"/>
<path d="M176.241 191.094C175.496 191.342 174.822 192.095 174.665 192.854C174.488 193.685 174.893 194.586 175.673 195.119C176.433 195.644 177.299 195.651 178.066 195.14C179.322 194.302 179.493 192.741 178.442 191.697C177.839 191.087 176.972 190.852 176.241 191.094Z" fill="#EBEBEB"/>
<path d="M4.646 215.611C3.90062 215.86 3.22623 216.612 3.07005 217.372C2.7648 218.834 4.22717 220.297 5.68953 219.991C6.78985 219.764 7.64172 218.643 7.53523 217.585C7.45715 216.84 6.89634 216.073 6.18645 215.725C5.75342 215.519 5.08613 215.469 4.646 215.611Z" fill="#EBEBEB"/>
<path d="M29.1606 215.611C28.4153 215.86 27.7409 216.612 27.5847 217.372C27.2794 218.834 28.7418 220.297 30.2042 219.991C31.3045 219.764 32.1564 218.643 32.0499 217.585C31.9718 216.84 31.411 216.073 30.7011 215.725C30.2681 215.519 29.6008 215.469 29.1606 215.611Z" fill="#EBEBEB"/>
<path d="M53.6753 215.611C52.9299 215.86 52.2555 216.612 52.0993 217.372C51.7941 218.834 53.2565 220.297 54.7188 219.991C55.8192 219.764 56.671 218.643 56.5645 217.585C56.4864 216.84 55.9256 216.073 55.2157 215.725C54.7827 215.519 54.1154 215.469 53.6753 215.611Z" fill="#EBEBEB"/>
<path d="M78.1899 215.611C77.4446 215.86 76.7702 216.612 76.614 217.372C76.3087 218.834 77.7711 220.297 79.2335 219.991C80.3338 219.764 81.1857 218.643 81.0792 217.585C81.0011 216.84 80.4403 216.073 79.7304 215.725C79.2974 215.519 78.6301 215.469 78.1899 215.611Z" fill="#EBEBEB"/>
<path d="M102.705 215.611C101.959 215.86 101.285 216.612 101.129 217.372C100.823 218.834 102.286 220.297 103.748 219.991C104.848 219.764 105.7 218.643 105.594 217.585C105.516 216.84 104.955 216.073 104.245 215.725C103.812 215.519 103.145 215.469 102.705 215.611Z" fill="#EBEBEB"/>
<path d="M127.219 215.611C126.474 215.86 125.799 216.612 125.643 217.372C125.338 218.834 126.8 220.297 128.263 219.991C129.363 219.764 130.215 218.643 130.108 217.585C130.03 216.84 129.47 216.073 128.76 215.725C128.327 215.519 127.659 215.469 127.219 215.611Z" fill="#EBEBEB"/>
<path d="M151.734 215.612C150.989 215.86 150.315 216.613 150.159 217.372C149.981 218.203 150.386 219.104 151.167 219.637C151.926 220.162 152.792 220.169 153.559 219.658C154.815 218.82 154.986 217.259 153.935 216.215C153.332 215.605 152.466 215.37 151.734 215.612Z" fill="#EBEBEB"/>
<path d="M176.241 215.612C175.496 215.86 174.822 216.613 174.665 217.372C174.488 218.203 174.893 219.104 175.673 219.637C176.433 220.162 177.299 220.169 178.066 219.658C179.322 218.82 179.493 217.259 178.442 216.215C177.839 215.605 176.972 215.37 176.241 215.612Z" fill="#EBEBEB"/>
<path d="M4.646 240.117C3.90062 240.365 3.22623 241.118 3.07005 241.877C2.7648 243.34 4.22717 244.802 5.68953 244.497C6.78985 244.27 7.64172 243.148 7.53523 242.09C7.45715 241.345 6.89634 240.578 6.18645 240.23C5.75342 240.025 5.08613 239.975 4.646 240.117Z" fill="#EBEBEB"/>
<path d="M29.1606 240.117C28.4153 240.365 27.7409 241.118 27.5847 241.877C27.2794 243.34 28.7418 244.802 30.2042 244.497C31.3045 244.27 32.1564 243.148 32.0499 242.09C31.9718 241.345 31.411 240.578 30.7011 240.23C30.2681 240.025 29.6008 239.975 29.1606 240.117Z" fill="#EBEBEB"/>
<path d="M53.6753 240.117C52.9299 240.365 52.2555 241.118 52.0993 241.877C51.7941 243.34 53.2565 244.802 54.7188 244.497C55.8192 244.27 56.671 243.148 56.5645 242.09C56.4864 241.345 55.9256 240.578 55.2157 240.23C54.7827 240.025 54.1154 239.975 53.6753 240.117Z" fill="#EBEBEB"/>
<path d="M78.1899 240.117C77.4446 240.365 76.7702 241.118 76.614 241.877C76.3087 243.34 77.7711 244.802 79.2335 244.497C80.3338 244.27 81.1857 243.148 81.0792 242.09C81.0011 241.345 80.4403 240.578 79.7304 240.23C79.2974 240.025 78.6301 239.975 78.1899 240.117Z" fill="#EBEBEB"/>
<path d="M102.705 240.117C101.959 240.365 101.285 241.118 101.129 241.877C100.823 243.34 102.286 244.802 103.748 244.497C104.848 244.27 105.7 243.148 105.594 242.09C105.516 241.345 104.955 240.578 104.245 240.23C103.812 240.025 103.145 239.975 102.705 240.117Z" fill="#EBEBEB"/>
<path d="M127.219 240.117C126.474 240.365 125.799 241.118 125.643 241.877C125.338 243.34 126.8 244.802 128.263 244.497C129.363 244.27 130.215 243.148 130.108 242.09C130.03 241.345 129.47 240.578 128.76 240.23C128.327 240.025 127.659 239.975 127.219 240.117Z" fill="#EBEBEB"/>
<path d="M151.734 240.117C150.989 240.365 150.314 241.118 150.158 241.877C149.853 243.34 151.315 244.802 152.777 244.497C153.878 244.27 154.73 243.148 154.623 242.09C154.545 241.345 153.984 240.578 153.274 240.23C152.841 240.025 152.174 239.975 151.734 240.117Z" fill="#EBEBEB"/>
<path d="M176.249 240.117C175.503 240.365 174.829 241.118 174.673 241.877C174.367 243.34 175.83 244.802 177.292 244.497C178.392 244.27 179.244 243.148 179.138 242.09C179.06 241.345 178.499 240.578 177.789 240.23C177.356 240.025 176.689 239.975 176.249 240.117Z" fill="#EBEBEB"/>
<path d="M4.646 264.618C3.90062 264.867 3.22623 265.619 3.07005 266.379C2.7648 267.841 4.22717 269.304 5.68953 268.998C6.78985 268.771 7.64172 267.65 7.53523 266.592C7.45715 265.846 6.89634 265.08 6.18645 264.732C5.75342 264.526 5.08613 264.476 4.646 264.618Z" fill="#EBEBEB"/>
<path d="M29.1606 264.618C28.4153 264.867 27.7409 265.619 27.5847 266.379C27.2794 267.841 28.7418 269.304 30.2042 268.998C31.3045 268.771 32.1564 267.65 32.0499 266.592C31.9718 265.846 31.411 265.08 30.7011 264.732C30.2681 264.526 29.6008 264.476 29.1606 264.618Z" fill="#EBEBEB"/>
<path d="M53.6753 264.618C52.9299 264.867 52.2555 265.619 52.0993 266.379C51.7941 267.841 53.2565 269.304 54.7188 268.998C55.8192 268.771 56.671 267.65 56.5645 266.592C56.4864 265.846 55.9256 265.08 55.2157 264.732C54.7827 264.526 54.1154 264.476 53.6753 264.618Z" fill="#EBEBEB"/>
<path d="M78.1899 264.618C77.4446 264.867 76.7702 265.619 76.614 266.379C76.3087 267.841 77.7711 269.304 79.2335 268.998C80.3338 268.771 81.1857 267.65 81.0792 266.592C81.0011 265.846 80.4403 265.08 79.7304 264.732C79.2974 264.526 78.6301 264.476 78.1899 264.618Z" fill="#EBEBEB"/>
<path d="M102.705 264.618C101.959 264.867 101.285 265.619 101.129 266.379C100.823 267.841 102.286 269.304 103.748 268.998C104.848 268.771 105.7 267.65 105.594 266.592C105.516 265.846 104.955 265.08 104.245 264.732C103.812 264.526 103.145 264.476 102.705 264.618Z" fill="#EBEBEB"/>
<path d="M127.219 264.618C126.474 264.867 125.799 265.619 125.643 266.379C125.338 267.841 126.8 269.304 128.263 268.998C129.363 268.771 130.215 267.65 130.108 266.592C130.03 265.846 129.47 265.08 128.76 264.732C128.327 264.526 127.659 264.476 127.219 264.618Z" fill="#EBEBEB"/>
<path d="M151.734 264.618C150.989 264.867 150.314 265.619 150.158 266.379C149.853 267.841 151.315 269.304 152.777 268.998C153.878 268.771 154.73 267.65 154.623 266.592C154.545 265.846 153.984 265.08 153.274 264.732C152.841 264.526 152.174 264.476 151.734 264.618Z" fill="#EBEBEB"/>
<path d="M176.249 264.618C175.503 264.867 174.829 265.619 174.673 266.379C174.367 267.841 175.83 269.304 177.292 268.998C178.392 268.771 179.244 267.65 179.138 266.592C179.06 265.846 178.499 265.08 177.789 264.732C177.356 264.526 176.689 264.476 176.249 264.618Z" fill="#EBEBEB"/>
<path d="M4.646 289.12C3.90062 289.368 3.22623 290.121 3.07005 290.88C2.7648 292.343 4.22717 293.805 5.68953 293.5C6.78985 293.273 7.64172 292.151 7.53523 291.093C7.45715 290.348 6.89634 289.581 6.18645 289.233C5.75342 289.027 5.08613 288.978 4.646 289.12Z" fill="#EBEBEB"/>
<path d="M29.1606 289.12C28.4153 289.368 27.7409 290.121 27.5847 290.88C27.2794 292.343 28.7418 293.805 30.2042 293.5C31.3045 293.273 32.1564 292.151 32.0499 291.093C31.9718 290.348 31.411 289.581 30.7011 289.233C30.2681 289.027 29.6008 288.978 29.1606 289.12Z" fill="#EBEBEB"/>
<path d="M53.6753 289.12C52.9299 289.368 52.2555 290.121 52.0993 290.88C51.7941 292.343 53.2565 293.805 54.7188 293.5C55.8192 293.273 56.671 292.151 56.5645 291.093C56.4864 290.348 55.9256 289.581 55.2157 289.233C54.7827 289.027 54.1154 288.978 53.6753 289.12Z" fill="#EBEBEB"/>
<path d="M78.1899 289.12C77.4446 289.368 76.7702 290.121 76.614 290.88C76.3087 292.343 77.7711 293.805 79.2335 293.5C80.3338 293.273 81.1857 292.151 81.0792 291.093C81.0011 290.348 80.4403 289.581 79.7304 289.233C79.2974 289.027 78.6301 288.978 78.1899 289.12Z" fill="#EBEBEB"/>
<path d="M102.705 289.12C101.959 289.368 101.285 290.121 101.129 290.88C100.823 292.343 102.286 293.805 103.748 293.5C104.848 293.273 105.7 292.151 105.594 291.093C105.516 290.348 104.955 289.581 104.245 289.233C103.812 289.027 103.145 288.978 102.705 289.12Z" fill="#EBEBEB"/>
<path d="M127.219 289.12C126.474 289.368 125.799 290.121 125.643 290.88C125.338 292.343 126.8 293.805 128.263 293.5C129.363 293.273 130.215 292.151 130.108 291.093C130.03 290.348 129.47 289.581 128.76 289.233C128.327 289.027 127.659 288.978 127.219 289.12Z" fill="#EBEBEB"/>
<path d="M151.734 289.12C150.989 289.368 150.314 290.121 150.158 290.88C149.853 292.343 151.315 293.805 152.777 293.5C153.878 293.273 154.73 292.151 154.623 291.093C154.545 290.348 153.984 289.581 153.274 289.233C152.841 289.027 152.174 288.978 151.734 289.12Z" fill="#EBEBEB"/>
<path d="M176.249 289.12C175.503 289.368 174.829 290.121 174.673 290.88C174.367 292.343 175.83 293.805 177.292 293.5C178.392 293.273 179.244 292.151 179.138 291.093C179.06 290.348 178.499 289.581 177.789 289.233C177.356 289.027 176.689 288.978 176.249 289.12Z" fill="#EBEBEB"/>
<path d="M4.646 313.621C3.90062 313.87 3.22623 314.622 3.07005 315.382C2.7648 316.844 4.22717 318.306 5.68953 318.001C6.78985 317.774 7.64172 316.652 7.53523 315.595C7.45715 314.849 6.89634 314.083 6.18645 313.735C5.75342 313.529 5.08613 313.479 4.646 313.621Z" fill="#EBEBEB"/>
<path d="M29.1606 313.621C28.4153 313.87 27.7409 314.622 27.5847 315.382C27.2794 316.844 28.7418 318.306 30.2042 318.001C31.3045 317.774 32.1564 316.652 32.0499 315.595C31.9718 314.849 31.411 314.083 30.7011 313.735C30.2681 313.529 29.6008 313.479 29.1606 313.621Z" fill="#EBEBEB"/>
<path d="M53.6753 313.621C52.9299 313.87 52.2555 314.622 52.0993 315.382C51.7941 316.844 53.2565 318.306 54.7188 318.001C55.8192 317.774 56.671 316.652 56.5645 315.595C56.4864 314.849 55.9256 314.083 55.2157 313.735C54.7827 313.529 54.1154 313.479 53.6753 313.621Z" fill="#EBEBEB"/>
<path d="M78.1899 313.621C77.4446 313.87 76.7702 314.622 76.614 315.382C76.3087 316.844 77.7711 318.306 79.2335 318.001C80.3338 317.774 81.1857 316.652 81.0792 315.595C81.0011 314.849 80.4403 314.083 79.7304 313.735C79.2974 313.529 78.6301 313.479 78.1899 313.621Z" fill="#EBEBEB"/>
<path d="M102.705 313.621C101.959 313.87 101.285 314.622 101.129 315.382C100.823 316.844 102.286 318.306 103.748 318.001C104.848 317.774 105.7 316.652 105.594 315.595C105.516 314.849 104.955 314.083 104.245 313.735C103.812 313.529 103.145 313.479 102.705 313.621Z" fill="#EBEBEB"/>
<path d="M127.219 313.621C126.474 313.87 125.799 314.622 125.643 315.382C125.338 316.844 126.8 318.306 128.263 318.001C129.363 317.774 130.215 316.652 130.108 315.595C130.03 314.849 129.47 314.083 128.76 313.735C128.327 313.529 127.659 313.479 127.219 313.621Z" fill="#EBEBEB"/>
<path d="M151.734 313.621C150.989 313.87 150.314 314.622 150.158 315.382C149.853 316.844 151.315 318.306 152.777 318.001C153.878 317.774 154.73 316.652 154.623 315.595C154.545 314.849 153.984 314.083 153.274 313.735C152.841 313.529 152.174 313.479 151.734 313.621Z" fill="#EBEBEB"/>
<path d="M176.249 313.621C175.503 313.87 174.829 314.622 174.673 315.382C174.367 316.844 175.83 318.306 177.292 318.001C178.392 317.774 179.244 316.652 179.138 315.595C179.06 314.849 178.499 314.083 177.789 313.735C177.356 313.529 176.689 313.479 176.249 313.621Z" fill="#EBEBEB"/>
<path d="M4.64658 338.136C3.9012 338.384 3.22681 339.137 3.07064 339.896C2.89317 340.727 3.2978 341.628 4.07868 342.161C4.83825 342.686 5.70431 342.693 6.47099 342.182C7.72749 341.344 7.89786 339.783 6.84723 338.739C6.24383 338.129 5.37777 337.894 4.64658 338.136Z" fill="#EBEBEB"/>
<path d="M29.1534 338.136C28.408 338.384 27.7336 339.137 27.5775 339.896C27.4 340.727 27.8046 341.628 28.5855 342.161C29.3451 342.686 30.2112 342.693 30.9778 342.182C32.2343 341.344 32.4047 339.783 31.3541 338.739C30.7507 338.129 29.8846 337.894 29.1534 338.136Z" fill="#EBEBEB"/>
<path d="M53.6584 338.136C52.5865 338.491 51.8624 339.669 52.0824 340.706C52.2599 341.551 53.0479 342.338 53.8926 342.516C55.2627 342.807 56.6896 341.508 56.5476 340.109C56.4695 339.364 55.9087 338.597 55.1988 338.25C54.7658 338.044 54.0985 337.994 53.6584 338.136Z" fill="#EBEBEB"/>
<path d="M78.173 338.136C77.1011 338.491 76.377 339.669 76.5971 340.706C76.7746 341.551 77.5625 342.338 78.4073 342.516C79.7774 342.807 81.2042 341.508 81.0623 340.109C80.9842 339.364 80.4234 338.597 79.7135 338.25C79.2805 338.044 78.6132 337.994 78.173 338.136Z" fill="#EBEBEB"/>
<path d="M102.688 338.136C101.616 338.491 100.892 339.669 101.112 340.706C101.289 341.551 102.077 342.338 102.922 342.516C104.292 342.807 105.719 341.508 105.577 340.109C105.499 339.364 104.938 338.597 104.228 338.25C103.795 338.044 103.128 337.994 102.688 338.136Z" fill="#EBEBEB"/>
<path d="M127.202 338.136C126.13 338.491 125.406 339.669 125.626 340.706C125.804 341.551 126.592 342.338 127.437 342.516C128.807 342.807 130.234 341.508 130.092 340.109C130.013 339.364 129.453 338.597 128.743 338.25C128.31 338.044 127.642 337.994 127.202 338.136Z" fill="#EBEBEB"/>
<path d="M151.718 338.136C150.973 338.384 150.298 339.137 150.142 339.896C149.837 341.359 151.299 342.821 152.762 342.516C153.862 342.289 154.714 341.167 154.607 340.109C154.529 339.364 153.969 338.597 153.259 338.249C152.826 338.044 152.158 337.994 151.718 338.136Z" fill="#EBEBEB"/>
<path d="M176.233 338.136C175.488 338.384 174.813 339.137 174.657 339.896C174.352 341.359 175.814 342.821 177.276 342.516C178.377 342.289 179.229 341.167 179.122 340.109C179.044 339.364 178.483 338.597 177.773 338.249C177.34 338.044 176.673 337.994 176.233 338.136Z" fill="#EBEBEB"/>
<path d="M200.617 19.6183C199.871 19.8668 199.197 20.6193 199.041 21.3788C198.736 22.8412 200.198 24.3036 201.66 23.9983C202.761 23.7711 203.612 22.6495 203.506 21.5918C203.428 20.8464 202.867 20.0797 202.157 19.7319C201.724 19.526 201.057 19.4763 200.617 19.6183Z" fill="#EBEBEB"/>
<path d="M225.131 19.6183C224.386 19.8668 223.712 20.6193 223.555 21.3788C223.25 22.8412 224.713 24.3036 226.175 23.9983C227.275 23.7711 228.127 22.6495 228.021 21.5918C227.942 20.8464 227.382 20.0797 226.672 19.7319C226.239 19.526 225.571 19.4763 225.131 19.6183Z" fill="#EBEBEB"/>
<path d="M249.646 19.6183C248.901 19.8668 248.226 20.6193 248.07 21.3788C247.765 22.8412 249.227 24.3036 250.69 23.9983C251.79 23.7711 252.642 22.6495 252.535 21.5918C252.457 20.8464 251.896 20.0797 251.186 19.7319C250.753 19.526 250.086 19.4763 249.646 19.6183Z" fill="#EBEBEB"/>
<path d="M274.161 19.6183C273.415 19.8668 272.741 20.6193 272.585 21.3788C272.279 22.8412 273.742 24.3036 275.204 23.9983C276.305 23.7711 277.156 22.6495 277.05 21.5918C276.972 20.8464 276.411 20.0797 275.701 19.7319C275.268 19.526 274.601 19.4763 274.161 19.6183Z" fill="#EBEBEB"/>
<path d="M298.675 19.6183C297.93 19.8668 297.256 20.6193 297.099 21.3788C296.794 22.8412 298.256 24.3036 299.719 23.9983C300.819 23.7711 301.671 22.6495 301.565 21.5918C301.486 20.8464 300.926 20.0797 300.216 19.7319C299.783 19.526 299.115 19.4763 298.675 19.6183Z" fill="#EBEBEB"/>
<path d="M323.19 19.6183C322.445 19.8668 321.77 20.6193 321.614 21.3788C321.309 22.8412 322.771 24.3036 324.233 23.9983C325.334 23.7711 326.186 22.6495 326.079 21.5918C326.001 20.8464 325.44 20.0797 324.73 19.7319C324.297 19.526 323.63 19.4763 323.19 19.6183Z" fill="#EBEBEB"/>
<path d="M347.705 19.6183C346.959 19.8668 346.285 20.6193 346.129 21.3788C345.823 22.8412 347.286 24.3036 348.748 23.9983C349.848 23.7711 350.7 22.6495 350.594 21.5918C350.516 20.8464 349.955 20.0797 349.245 19.7319C348.812 19.526 348.145 19.4763 347.705 19.6183Z" fill="#EBEBEB"/>
<path d="M200.617 44.1198C199.871 44.3682 199.197 45.1207 199.041 45.8803C198.736 47.3427 200.198 48.805 201.66 48.4998C202.761 48.2726 203.612 47.151 203.506 46.0933C203.428 45.3479 202.867 44.5812 202.157 44.2334C201.724 44.0275 201.057 43.9778 200.617 44.1198Z" fill="#EBEBEB"/>
<path d="M225.131 44.1198C224.386 44.3682 223.712 45.1207 223.555 45.8803C223.25 47.3427 224.713 48.805 226.175 48.4998C227.275 48.2726 228.127 47.151 228.021 46.0933C227.942 45.3479 227.382 44.5812 226.672 44.2334C226.239 44.0275 225.571 43.9778 225.131 44.1198Z" fill="#EBEBEB"/>
<path d="M249.646 44.1198C248.901 44.3682 248.226 45.1207 248.07 45.8803C247.765 47.3427 249.227 48.805 250.69 48.4998C251.79 48.2726 252.642 47.151 252.535 46.0933C252.457 45.3479 251.896 44.5812 251.186 44.2334C250.753 44.0275 250.086 43.9778 249.646 44.1198Z" fill="#EBEBEB"/>
<path d="M274.161 44.1198C273.415 44.3682 272.741 45.1207 272.585 45.8803C272.279 47.3427 273.742 48.805 275.204 48.4998C276.305 48.2726 277.156 47.151 277.05 46.0933C276.972 45.3479 276.411 44.5812 275.701 44.2334C275.268 44.0275 274.601 43.9778 274.161 44.1198Z" fill="#EBEBEB"/>
<path d="M298.675 44.1198C297.93 44.3682 297.256 45.1207 297.099 45.8803C296.794 47.3427 298.256 48.805 299.719 48.4998C300.819 48.2726 301.671 47.151 301.565 46.0933C301.486 45.3479 300.926 44.5812 300.216 44.2334C299.783 44.0275 299.115 43.9778 298.675 44.1198Z" fill="#EBEBEB"/>
<path d="M323.19 44.1198C322.445 44.3682 321.77 45.1207 321.614 45.8803C321.309 47.3427 322.771 48.805 324.233 48.4998C325.334 48.2726 326.186 47.151 326.079 46.0933C326.001 45.3479 325.44 44.5812 324.73 44.2334C324.297 44.0275 323.63 43.9778 323.19 44.1198Z" fill="#EBEBEB"/>
<path d="M347.705 44.1198C346.959 44.3682 346.285 45.1207 346.129 45.8803C345.823 47.3427 347.286 48.805 348.748 48.4998C349.848 48.2726 350.7 47.151 350.594 46.0933C350.516 45.3479 349.955 44.5812 349.245 44.2334C348.812 44.0275 348.145 43.9778 347.705 44.1198Z" fill="#EBEBEB"/>
<path d="M200.617 68.6212C199.871 68.8697 199.197 69.6222 199.041 70.3818C198.736 71.8441 200.198 73.3065 201.66 73.0012C202.761 72.7741 203.612 71.6525 203.506 70.5947C203.428 69.8493 202.867 69.0827 202.157 68.7348C201.724 68.529 201.057 68.4793 200.617 68.6212Z" fill="#EBEBEB"/>
<path d="M225.131 68.6212C224.386 68.8697 223.712 69.6222 223.555 70.3818C223.25 71.8441 224.713 73.3065 226.175 73.0012C227.275 72.7741 228.127 71.6525 228.021 70.5947C227.942 69.8493 227.382 69.0827 226.672 68.7348C226.239 68.529 225.571 68.4793 225.131 68.6212Z" fill="#EBEBEB"/>
<path d="M249.646 68.6212C248.901 68.8697 248.226 69.6222 248.07 70.3818C247.765 71.8441 249.227 73.3065 250.69 73.0012C251.79 72.7741 252.642 71.6525 252.535 70.5947C252.457 69.8493 251.896 69.0827 251.186 68.7348C250.753 68.529 250.086 68.4793 249.646 68.6212Z" fill="#EBEBEB"/>
<path d="M274.161 68.6212C273.415 68.8697 272.741 69.6222 272.585 70.3818C272.279 71.8441 273.742 73.3065 275.204 73.0012C276.305 72.7741 277.156 71.6525 277.05 70.5947C276.972 69.8493 276.411 69.0827 275.701 68.7348C275.268 68.529 274.601 68.4793 274.161 68.6212Z" fill="#EBEBEB"/>
<path d="M298.675 68.6212C297.93 68.8697 297.256 69.6222 297.099 70.3818C296.794 71.8441 298.256 73.3065 299.719 73.0012C300.819 72.7741 301.671 71.6525 301.565 70.5947C301.486 69.8493 300.926 69.0827 300.216 68.7348C299.783 68.529 299.115 68.4793 298.675 68.6212Z" fill="#EBEBEB"/>
<path d="M323.19 68.6212C322.445 68.8697 321.77 69.6222 321.614 70.3818C321.309 71.8441 322.771 73.3065 324.233 73.0012C325.334 72.7741 326.186 71.6525 326.079 70.5947C326.001 69.8493 325.44 69.0827 324.73 68.7348C324.297 68.529 323.63 68.4793 323.19 68.6212Z" fill="#EBEBEB"/>
<path d="M347.705 68.6212C346.959 68.8697 346.285 69.6222 346.129 70.3818C345.823 71.8441 347.286 73.3065 348.748 73.0012C349.848 72.7741 350.7 71.6525 350.594 70.5947C350.516 69.8493 349.955 69.0827 349.245 68.7348C348.812 68.529 348.145 68.4793 347.705 68.6212Z" fill="#EBEBEB"/>
<path d="M200.617 93.1359C199.871 93.3843 199.197 94.1368 199.041 94.8964C198.736 96.3588 200.198 97.8211 201.66 97.5159C202.761 97.2887 203.612 96.1671 203.506 95.1094C203.428 94.364 202.867 93.5973 202.157 93.2495C201.724 93.0436 201.057 92.9939 200.617 93.1359Z" fill="#EBEBEB"/>
<path d="M225.131 93.1359C224.386 93.3843 223.712 94.1368 223.555 94.8964C223.25 96.3588 224.713 97.8211 226.175 97.5159C227.275 97.2887 228.127 96.1671 228.021 95.1094C227.942 94.364 227.382 93.5973 226.672 93.2495C226.239 93.0436 225.571 92.9939 225.131 93.1359Z" fill="#EBEBEB"/>
<path d="M249.647 93.1356C248.901 93.3841 248.227 94.1366 248.071 94.8961C247.893 95.7267 248.298 96.6283 249.079 97.1607C249.838 97.686 250.704 97.6931 251.471 97.182C252.727 96.3443 252.898 94.7826 251.847 93.739C251.244 93.1285 250.378 92.8943 249.647 93.1356Z" fill="#EBEBEB"/>
<path d="M274.153 93.1356C273.408 93.3841 272.734 94.1366 272.577 94.8961C272.4 95.7267 272.805 96.6283 273.586 97.1607C274.345 97.686 275.211 97.6931 275.978 97.182C277.234 96.3443 277.405 94.7826 276.354 93.739C275.751 93.1285 274.885 92.8943 274.153 93.1356Z" fill="#EBEBEB"/>
<path d="M298.658 93.136C297.586 93.4909 296.862 94.6693 297.082 95.7057C297.26 96.5505 298.048 97.3385 298.893 97.516C300.263 97.807 301.69 96.5079 301.548 95.1094C301.47 94.3641 300.909 93.5974 300.199 93.2495C299.766 93.0437 299.099 92.994 298.658 93.136Z" fill="#EBEBEB"/>
<path d="M323.173 93.136C322.101 93.4909 321.377 94.6693 321.597 95.7057C321.775 96.5505 322.563 97.3385 323.407 97.516C324.777 97.807 326.204 96.5079 326.062 95.1094C325.984 94.3641 325.423 93.5974 324.713 93.2495C324.28 93.0437 323.613 92.994 323.173 93.136Z" fill="#EBEBEB"/>
<path d="M347.688 93.136C346.616 93.4909 345.892 94.6693 346.112 95.7057C346.289 96.5505 347.077 97.3385 347.922 97.516C349.292 97.807 350.719 96.5079 350.577 95.1094C350.499 94.3641 349.938 93.5974 349.228 93.2495C348.795 93.0437 348.128 92.994 347.688 93.136Z" fill="#EBEBEB"/>
<path d="M200.617 117.654C199.871 117.902 199.197 118.655 199.041 119.414C198.736 120.877 200.198 122.339 201.66 122.034C202.761 121.807 203.612 120.685 203.506 119.627C203.428 118.882 202.867 118.115 202.157 117.768C201.724 117.562 201.057 117.512 200.617 117.654Z" fill="#EBEBEB"/>
<path d="M225.131 117.654C224.386 117.902 223.712 118.655 223.555 119.414C223.25 120.877 224.713 122.339 226.175 122.034C227.275 121.807 228.127 120.685 228.021 119.627C227.942 118.882 227.382 118.115 226.672 117.768C226.239 117.562 225.571 117.512 225.131 117.654Z" fill="#EBEBEB"/>
<path d="M249.647 117.654C248.901 117.902 248.227 118.655 248.071 119.414C247.893 120.245 248.298 121.146 249.079 121.679C249.838 122.204 250.704 122.211 251.471 121.7C252.727 120.862 252.898 119.301 251.847 118.257C251.244 117.647 250.378 117.412 249.647 117.654Z" fill="#EBEBEB"/>
<path d="M274.153 117.654C273.408 117.902 272.734 118.655 272.577 119.414C272.4 120.245 272.805 121.146 273.586 121.679C274.345 122.204 275.211 122.211 275.978 121.7C277.234 120.862 277.405 119.301 276.354 118.257C275.751 117.647 274.885 117.412 274.153 117.654Z" fill="#EBEBEB"/>
<path d="M298.658 117.654C297.586 118.008 296.862 119.187 297.082 120.223C297.26 121.068 298.048 121.856 298.893 122.034C300.263 122.325 301.69 121.025 301.548 119.627C301.47 118.882 300.909 118.115 300.199 117.767C299.766 117.561 299.099 117.512 298.658 117.654Z" fill="#EBEBEB"/>
<path d="M323.173 117.654C322.101 118.008 321.377 119.187 321.597 120.223C321.775 121.068 322.563 121.856 323.407 122.034C324.777 122.325 326.204 121.025 326.062 119.627C325.984 118.882 325.423 118.115 324.713 117.767C324.28 117.561 323.613 117.512 323.173 117.654Z" fill="#EBEBEB"/>
<path d="M347.688 117.654C346.616 118.008 345.892 119.187 346.112 120.223C346.289 121.068 347.077 121.856 347.922 122.034C349.292 122.325 350.719 121.025 350.577 119.627C350.499 118.882 349.938 118.115 349.228 117.767C348.795 117.561 348.128 117.512 347.688 117.654Z" fill="#EBEBEB"/>
<path d="M200.617 142.172C199.871 142.42 199.197 143.173 199.041 143.933C198.736 145.395 200.198 146.857 201.66 146.552C202.761 146.325 203.612 145.203 203.506 144.146C203.428 143.4 202.867 142.633 202.157 142.286C201.724 142.08 201.057 142.03 200.617 142.172Z" fill="#EBEBEB"/>
<path d="M225.131 142.172C224.386 142.42 223.712 143.173 223.555 143.933C223.25 145.395 224.713 146.857 226.175 146.552C227.275 146.325 228.127 145.203 228.021 144.146C227.942 143.4 227.382 142.633 226.672 142.286C226.239 142.08 225.571 142.03 225.131 142.172Z" fill="#EBEBEB"/>
<path d="M249.647 142.172C248.901 142.42 248.227 143.173 248.071 143.932C247.893 144.763 248.298 145.664 249.079 146.197C249.838 146.722 250.704 146.729 251.471 146.218C252.727 145.38 252.898 143.819 251.847 142.775C251.244 142.165 250.378 141.93 249.647 142.172Z" fill="#EBEBEB"/>
<path d="M274.153 142.172C273.408 142.42 272.734 143.173 272.577 143.932C272.4 144.763 272.805 145.664 273.586 146.197C274.345 146.722 275.211 146.729 275.978 146.218C277.234 145.38 277.405 143.819 276.354 142.775C275.751 142.165 274.885 141.93 274.153 142.172Z" fill="#EBEBEB"/>
<path d="M298.66 142.172C297.914 142.42 297.24 143.173 297.084 143.933C296.778 145.395 298.241 146.857 299.703 146.552C300.804 146.325 301.655 145.203 301.549 144.146C301.471 143.4 300.91 142.633 300.2 142.286C299.767 142.08 299.1 142.03 298.66 142.172Z" fill="#EBEBEB"/>
<path d="M323.174 142.172C322.429 142.42 321.755 143.173 321.598 143.933C321.293 145.395 322.755 146.857 324.218 146.552C325.318 146.325 326.17 145.203 326.064 144.146C325.985 143.4 325.425 142.633 324.715 142.286C324.282 142.08 323.614 142.03 323.174 142.172Z" fill="#EBEBEB"/>
<path d="M347.689 142.172C346.944 142.42 346.269 143.173 346.113 143.933C345.808 145.395 347.27 146.857 348.732 146.552C349.833 146.325 350.685 145.203 350.578 144.146C350.5 143.4 349.939 142.633 349.229 142.286C348.796 142.08 348.129 142.03 347.689 142.172Z" fill="#EBEBEB"/>
<path d="M200.617 166.677C199.871 166.925 199.197 167.678 199.041 168.437C198.736 169.9 200.198 171.362 201.66 171.057C202.761 170.83 203.612 169.708 203.506 168.65C203.428 167.905 202.867 167.138 202.157 166.79C201.724 166.585 201.057 166.535 200.617 166.677Z" fill="#EBEBEB"/>
<path d="M225.131 166.677C224.386 166.925 223.712 167.678 223.555 168.437C223.25 169.9 224.713 171.362 226.175 171.057C227.275 170.83 228.127 169.708 228.021 168.65C227.942 167.905 227.382 167.138 226.672 166.79C226.239 166.585 225.571 166.535 225.131 166.677Z" fill="#EBEBEB"/>
<path d="M249.646 166.677C248.901 166.925 248.226 167.678 248.07 168.437C247.765 169.9 249.227 171.362 250.69 171.057C251.79 170.83 252.642 169.708 252.535 168.65C252.457 167.905 251.896 167.138 251.186 166.79C250.753 166.585 250.086 166.535 249.646 166.677Z" fill="#EBEBEB"/>
<path d="M274.161 166.677C273.415 166.925 272.741 167.678 272.585 168.437C272.279 169.9 273.742 171.362 275.204 171.057C276.305 170.83 277.156 169.708 277.05 168.65C276.972 167.905 276.411 167.138 275.701 166.79C275.268 166.585 274.601 166.535 274.161 166.677Z" fill="#EBEBEB"/>
<path d="M298.675 166.677C297.93 166.925 297.256 167.678 297.099 168.437C296.794 169.9 298.256 171.362 299.719 171.057C300.819 170.83 301.671 169.708 301.565 168.65C301.486 167.905 300.926 167.138 300.216 166.79C299.783 166.585 299.115 166.535 298.675 166.677Z" fill="#EBEBEB"/>
<path d="M323.19 166.677C322.445 166.925 321.77 167.678 321.614 168.437C321.309 169.9 322.771 171.362 324.233 171.057C325.334 170.83 326.186 169.708 326.079 168.65C326.001 167.905 325.44 167.138 324.73 166.79C324.297 166.585 323.63 166.535 323.19 166.677Z" fill="#EBEBEB"/>
<path d="M347.705 166.677C346.959 166.925 346.285 167.678 346.129 168.437C345.823 169.9 347.286 171.362 348.748 171.057C349.848 170.83 350.7 169.708 350.594 168.65C350.516 167.905 349.955 167.138 349.245 166.79C348.812 166.585 348.145 166.535 347.705 166.677Z" fill="#EBEBEB"/>
<path d="M200.617 191.093C199.871 191.342 199.197 192.094 199.041 192.854C198.736 194.316 200.198 195.779 201.66 195.473C202.761 195.246 203.612 194.125 203.506 193.067C203.428 192.322 202.867 191.555 202.157 191.207C201.724 191.001 201.057 190.951 200.617 191.093Z" fill="#EBEBEB"/>
<path d="M225.13 191.093C224.058 191.448 223.334 192.627 223.554 193.663C223.732 194.508 224.52 195.296 225.357 195.473C226.734 195.765 228.161 194.465 228.019 193.067C227.941 192.322 227.38 191.555 226.671 191.207C226.237 191.001 225.57 190.951 225.13 191.093Z" fill="#EBEBEB"/>
<path d="M249.646 191.093C248.901 191.342 248.226 192.094 248.07 192.854C247.765 194.316 249.227 195.779 250.69 195.473C251.79 195.246 252.642 194.125 252.535 193.067C252.457 192.322 251.896 191.555 251.186 191.207C250.753 191.001 250.086 190.951 249.646 191.093Z" fill="#EBEBEB"/>
<path d="M274.161 191.093C273.415 191.342 272.741 192.094 272.585 192.854C272.279 194.316 273.742 195.779 275.204 195.473C276.305 195.246 277.156 194.125 277.05 193.067C276.972 192.322 276.411 191.555 275.701 191.207C275.268 191.001 274.601 190.951 274.161 191.093Z" fill="#EBEBEB"/>
<path d="M298.675 191.093C297.93 191.342 297.256 192.094 297.099 192.854C296.794 194.316 298.256 195.779 299.719 195.473C300.819 195.246 301.671 194.125 301.565 193.067C301.486 192.322 300.926 191.555 300.216 191.207C299.783 191.001 299.115 190.951 298.675 191.093Z" fill="#EBEBEB"/>
<path d="M323.19 191.093C322.445 191.342 321.77 192.094 321.614 192.854C321.309 194.316 322.771 195.779 324.233 195.473C325.334 195.246 326.186 194.125 326.079 193.067C326.001 192.322 325.44 191.555 324.73 191.207C324.297 191.001 323.63 190.951 323.19 191.093Z" fill="#EBEBEB"/>
<path d="M347.705 191.093C346.959 191.342 346.285 192.094 346.129 192.854C345.823 194.316 347.286 195.779 348.748 195.473C349.848 195.246 350.7 194.125 350.594 193.067C350.516 192.322 349.955 191.555 349.245 191.207C348.812 191.001 348.145 190.951 347.705 191.093Z" fill="#EBEBEB"/>
<path d="M200.617 215.611C199.871 215.86 199.197 216.612 199.041 217.372C198.736 218.834 200.198 220.297 201.66 219.991C202.761 219.764 203.612 218.643 203.506 217.585C203.428 216.84 202.867 216.073 202.157 215.725C201.724 215.519 201.057 215.469 200.617 215.611Z" fill="#EBEBEB"/>
<path d="M225.13 215.612C224.058 215.966 223.334 217.145 223.554 218.181C223.732 219.026 224.52 219.814 225.357 219.992C226.734 220.283 228.161 218.983 228.019 217.585C227.941 216.84 227.38 216.073 226.671 215.725C226.237 215.519 225.57 215.47 225.13 215.612Z" fill="#EBEBEB"/>
<path d="M249.646 215.611C248.901 215.86 248.226 216.612 248.07 217.372C247.765 218.834 249.227 220.297 250.69 219.991C251.79 219.764 252.642 218.643 252.535 217.585C252.457 216.84 251.896 216.073 251.186 215.725C250.753 215.519 250.086 215.469 249.646 215.611Z" fill="#EBEBEB"/>
<path d="M274.161 215.611C273.415 215.86 272.741 216.612 272.585 217.372C272.279 218.834 273.742 220.297 275.204 219.991C276.305 219.764 277.156 218.643 277.05 217.585C276.972 216.84 276.411 216.073 275.701 215.725C275.268 215.519 274.601 215.469 274.161 215.611Z" fill="#EBEBEB"/>
<path d="M298.675 215.611C297.93 215.86 297.256 216.612 297.099 217.372C296.794 218.834 298.256 220.297 299.719 219.991C300.819 219.764 301.671 218.643 301.565 217.585C301.486 216.84 300.926 216.073 300.216 215.725C299.783 215.519 299.115 215.469 298.675 215.611Z" fill="#EBEBEB"/>
<path d="M323.19 215.611C322.445 215.86 321.77 216.612 321.614 217.372C321.309 218.834 322.771 220.297 324.233 219.991C325.334 219.764 326.186 218.643 326.079 217.585C326.001 216.84 325.44 216.073 324.73 215.725C324.297 215.519 323.63 215.469 323.19 215.611Z" fill="#EBEBEB"/>
<path d="M347.705 215.611C346.959 215.86 346.285 216.612 346.129 217.372C345.823 218.834 347.286 220.297 348.748 219.991C349.848 219.764 350.7 218.643 350.594 217.585C350.516 216.84 349.955 216.073 349.245 215.725C348.812 215.519 348.145 215.469 347.705 215.611Z" fill="#EBEBEB"/>
<path d="M200.617 240.117C199.871 240.365 199.197 241.118 199.041 241.877C198.736 243.34 200.198 244.802 201.66 244.497C202.761 244.27 203.612 243.148 203.506 242.09C203.428 241.345 202.867 240.578 202.157 240.23C201.724 240.025 201.057 239.975 200.617 240.117Z" fill="#EBEBEB"/>
<path d="M225.131 240.117C224.386 240.365 223.712 241.118 223.555 241.877C223.25 243.34 224.713 244.802 226.175 244.497C227.275 244.27 228.127 243.148 228.021 242.09C227.942 241.345 227.382 240.578 226.672 240.23C226.239 240.025 225.571 239.975 225.131 240.117Z" fill="#EBEBEB"/>
<path d="M249.646 240.117C248.901 240.365 248.226 241.118 248.07 241.877C247.765 243.34 249.227 244.802 250.69 244.497C251.79 244.27 252.642 243.148 252.535 242.09C252.457 241.345 251.896 240.578 251.186 240.23C250.753 240.025 250.086 239.975 249.646 240.117Z" fill="#EBEBEB"/>
<path d="M274.161 240.117C273.415 240.365 272.741 241.118 272.585 241.877C272.279 243.34 273.742 244.802 275.204 244.497C276.305 244.27 277.156 243.148 277.05 242.09C276.972 241.345 276.411 240.578 275.701 240.23C275.268 240.025 274.601 239.975 274.161 240.117Z" fill="#EBEBEB"/>
<path d="M298.675 240.117C297.93 240.365 297.256 241.118 297.099 241.877C296.794 243.34 298.256 244.802 299.719 244.497C300.819 244.27 301.671 243.148 301.565 242.09C301.486 241.345 300.926 240.578 300.216 240.23C299.783 240.025 299.115 239.975 298.675 240.117Z" fill="#EBEBEB"/>
<path d="M323.19 240.117C322.445 240.365 321.77 241.118 321.614 241.877C321.309 243.34 322.771 244.802 324.233 244.497C325.334 244.27 326.186 243.148 326.079 242.09C326.001 241.345 325.44 240.578 324.73 240.23C324.297 240.025 323.63 239.975 323.19 240.117Z" fill="#EBEBEB"/>
<path d="M347.705 240.117C346.959 240.365 346.285 241.118 346.129 241.877C345.823 243.34 347.286 244.802 348.748 244.497C349.848 244.27 350.7 243.148 350.594 242.09C350.516 241.345 349.955 240.578 349.245 240.23C348.812 240.025 348.145 239.975 347.705 240.117Z" fill="#EBEBEB"/>
<path d="M200.617 264.618C199.871 264.867 199.197 265.619 199.041 266.379C198.736 267.841 200.198 269.304 201.66 268.998C202.761 268.771 203.612 267.65 203.506 266.592C203.428 265.846 202.867 265.08 202.157 264.732C201.724 264.526 201.057 264.476 200.617 264.618Z" fill="#EBEBEB"/>
<path d="M225.131 264.618C224.386 264.867 223.712 265.619 223.555 266.379C223.25 267.841 224.713 269.304 226.175 268.998C227.275 268.771 228.127 267.65 228.021 266.592C227.942 265.846 227.382 265.08 226.672 264.732C226.239 264.526 225.571 264.476 225.131 264.618Z" fill="#EBEBEB"/>
<path d="M249.646 264.618C248.901 264.867 248.226 265.619 248.07 266.379C247.765 267.841 249.227 269.304 250.69 268.998C251.79 268.771 252.642 267.65 252.535 266.592C252.457 265.846 251.896 265.08 251.186 264.732C250.753 264.526 250.086 264.476 249.646 264.618Z" fill="#EBEBEB"/>
<path d="M274.161 264.618C273.415 264.867 272.741 265.619 272.585 266.379C272.279 267.841 273.742 269.304 275.204 268.998C276.305 268.771 277.156 267.65 277.05 266.592C276.972 265.846 276.411 265.08 275.701 264.732C275.268 264.526 274.601 264.476 274.161 264.618Z" fill="#EBEBEB"/>
<path d="M298.675 264.618C297.93 264.867 297.256 265.619 297.099 266.379C296.794 267.841 298.256 269.304 299.719 268.998C300.819 268.771 301.671 267.65 301.565 266.592C301.486 265.846 300.926 265.08 300.216 264.732C299.783 264.526 299.115 264.476 298.675 264.618Z" fill="#EBEBEB"/>
<path d="M323.19 264.618C322.445 264.867 321.77 265.619 321.614 266.379C321.309 267.841 322.771 269.304 324.233 268.998C325.334 268.771 326.186 267.65 326.079 266.592C326.001 265.846 325.44 265.08 324.73 264.732C324.297 264.526 323.63 264.476 323.19 264.618Z" fill="#EBEBEB"/>
<path d="M347.705 264.618C346.959 264.867 346.285 265.619 346.129 266.379C345.823 267.841 347.286 269.304 348.748 268.998C349.848 268.771 350.7 267.65 350.594 266.592C350.516 265.846 349.955 265.08 349.245 264.732C348.812 264.526 348.145 264.476 347.705 264.618Z" fill="#EBEBEB"/>
<path d="M200.617 289.12C199.871 289.368 199.197 290.121 199.041 290.88C198.736 292.343 200.198 293.805 201.66 293.5C202.761 293.273 203.612 292.151 203.506 291.093C203.428 290.348 202.867 289.581 202.157 289.233C201.724 289.027 201.057 288.978 200.617 289.12Z" fill="#EBEBEB"/>
<path d="M225.131 289.12C224.386 289.368 223.712 290.121 223.555 290.88C223.25 292.343 224.713 293.805 226.175 293.5C227.275 293.273 228.127 292.151 228.021 291.093C227.942 290.348 227.382 289.581 226.672 289.233C226.239 289.027 225.571 288.978 225.131 289.12Z" fill="#EBEBEB"/>
<path d="M249.646 289.12C248.901 289.368 248.226 290.121 248.07 290.88C247.765 292.343 249.227 293.805 250.69 293.5C251.79 293.273 252.642 292.151 252.535 291.093C252.457 290.348 251.896 289.581 251.186 289.233C250.753 289.027 250.086 288.978 249.646 289.12Z" fill="#EBEBEB"/>
<path d="M274.161 289.12C273.415 289.368 272.741 290.121 272.585 290.88C272.279 292.343 273.742 293.805 275.204 293.5C276.305 293.273 277.156 292.151 277.05 291.093C276.972 290.348 276.411 289.581 275.701 289.233C275.268 289.027 274.601 288.978 274.161 289.12Z" fill="#EBEBEB"/>
<path d="M298.675 289.12C297.93 289.368 297.256 290.121 297.099 290.88C296.794 292.343 298.256 293.805 299.719 293.5C300.819 293.273 301.671 292.151 301.565 291.093C301.486 290.348 300.926 289.581 300.216 289.233C299.783 289.027 299.115 288.978 298.675 289.12Z" fill="#EBEBEB"/>
<path d="M323.19 289.12C322.445 289.368 321.77 290.121 321.614 290.88C321.309 292.343 322.771 293.805 324.233 293.5C325.334 293.273 326.186 292.151 326.079 291.093C326.001 290.348 325.44 289.581 324.73 289.233C324.297 289.027 323.63 288.978 323.19 289.12Z" fill="#EBEBEB"/>
<path d="M347.705 289.12C346.959 289.368 346.285 290.121 346.129 290.88C345.823 292.343 347.286 293.805 348.748 293.5C349.848 293.273 350.7 292.151 350.594 291.093C350.516 290.348 349.955 289.581 349.245 289.233C348.812 289.027 348.145 288.978 347.705 289.12Z" fill="#EBEBEB"/>
<path d="M200.617 313.621C199.871 313.87 199.197 314.622 199.041 315.382C198.736 316.844 200.198 318.306 201.66 318.001C202.761 317.774 203.612 316.652 203.506 315.595C203.428 314.849 202.867 314.083 202.157 313.735C201.724 313.529 201.057 313.479 200.617 313.621Z" fill="#EBEBEB"/>
<path d="M225.131 313.621C224.386 313.87 223.712 314.622 223.555 315.382C223.25 316.844 224.713 318.306 226.175 318.001C227.275 317.774 228.127 316.652 228.021 315.595C227.942 314.849 227.382 314.083 226.672 313.735C226.239 313.529 225.571 313.479 225.131 313.621Z" fill="#EBEBEB"/>
<path d="M249.646 313.621C248.901 313.87 248.226 314.622 248.07 315.382C247.765 316.844 249.227 318.306 250.69 318.001C251.79 317.774 252.642 316.652 252.535 315.595C252.457 314.849 251.896 314.083 251.186 313.735C250.753 313.529 250.086 313.479 249.646 313.621Z" fill="#EBEBEB"/>
<path d="M274.161 313.621C273.415 313.87 272.741 314.622 272.585 315.382C272.279 316.844 273.742 318.306 275.204 318.001C276.305 317.774 277.156 316.652 277.05 315.595C276.972 314.849 276.411 314.083 275.701 313.735C275.268 313.529 274.601 313.479 274.161 313.621Z" fill="#EBEBEB"/>
<path d="M298.675 313.621C297.93 313.87 297.256 314.622 297.099 315.382C296.794 316.844 298.256 318.306 299.719 318.001C300.819 317.774 301.671 316.652 301.565 315.595C301.486 314.849 300.926 314.083 300.216 313.735C299.783 313.529 299.115 313.479 298.675 313.621Z" fill="#EBEBEB"/>
<path d="M323.19 313.621C322.445 313.87 321.77 314.622 321.614 315.382C321.309 316.844 322.771 318.306 324.233 318.001C325.334 317.774 326.186 316.652 326.079 315.595C326.001 314.849 325.44 314.083 324.73 313.735C324.297 313.529 323.63 313.479 323.19 313.621Z" fill="#EBEBEB"/>
<path d="M347.705 313.621C346.959 313.87 346.285 314.622 346.129 315.382C345.823 316.844 347.286 318.306 348.748 318.001C349.848 317.774 350.7 316.652 350.594 315.595C350.516 314.849 349.955 314.083 349.245 313.735C348.812 313.529 348.145 313.479 347.705 313.621Z" fill="#EBEBEB"/>
<path d="M200.617 338.136C199.871 338.384 199.197 339.137 199.041 339.896C198.736 341.359 200.198 342.821 201.66 342.516C202.761 342.289 203.612 341.167 203.506 340.109C203.428 339.364 202.867 338.597 202.157 338.249C201.724 338.044 201.057 337.994 200.617 338.136Z" fill="#EBEBEB"/>
<path d="M225.131 338.136C224.386 338.384 223.712 339.137 223.555 339.896C223.25 341.359 224.713 342.821 226.175 342.516C227.275 342.289 228.127 341.167 228.021 340.109C227.942 339.364 227.382 338.597 226.672 338.249C226.239 338.044 225.571 337.994 225.131 338.136Z" fill="#EBEBEB"/>
<path d="M249.647 338.136C248.901 338.384 248.227 339.137 248.071 339.896C247.893 340.727 248.298 341.628 249.079 342.161C249.838 342.686 250.704 342.693 251.471 342.182C252.727 341.344 252.898 339.783 251.847 338.739C251.244 338.129 250.378 337.894 249.647 338.136Z" fill="#EBEBEB"/>
<path d="M274.153 338.136C273.408 338.384 272.734 339.137 272.577 339.896C272.4 340.727 272.805 341.628 273.586 342.161C274.345 342.686 275.211 342.693 275.978 342.182C277.234 341.344 277.405 339.783 276.354 338.739C275.751 338.129 274.885 337.894 274.153 338.136Z" fill="#EBEBEB"/>
<path d="M298.658 338.136C297.586 338.491 296.862 339.669 297.082 340.706C297.26 341.551 298.048 342.338 298.893 342.516C300.263 342.807 301.69 341.508 301.548 340.109C301.47 339.364 300.909 338.597 300.199 338.25C299.766 338.044 299.099 337.994 298.658 338.136Z" fill="#EBEBEB"/>
<path d="M323.173 338.136C322.101 338.491 321.377 339.669 321.597 340.706C321.775 341.551 322.563 342.338 323.407 342.516C324.777 342.807 326.204 341.508 326.062 340.109C325.984 339.364 325.423 338.597 324.713 338.25C324.28 338.044 323.613 337.994 323.173 338.136Z" fill="#EBEBEB"/>
<path d="M347.688 338.136C346.616 338.491 345.892 339.669 346.112 340.706C346.289 341.551 347.077 342.338 347.922 342.516C349.292 342.807 350.719 341.508 350.577 340.109C350.499 339.364 349.938 338.597 349.228 338.25C348.795 338.044 348.128 337.994 347.688 338.136Z" fill="#EBEBEB"/>
</g>
</svg>
