<svg width="30" height="30" viewBox="0 0 30 30" fill="none" xmlns="http://www.w3.org/2000/svg">
<g clip-path="url(#clip0_38_2368)">
<path opacity="0.4" d="M28.286 18.8574H20.5717C19.6249 18.8574 18.8574 19.6249 18.8574 20.5717V28.286C18.8574 29.2328 19.6249 30.0003 20.5717 30.0003H28.286C29.2328 30.0003 30.0003 29.2328 30.0003 28.286V20.5717C30.0003 19.6249 29.2328 18.8574 28.286 18.8574Z" fill="#66EACF"/>
<path d="M28.2854 0.642578H1.71401C1.12227 0.642578 0.642578 1.12227 0.642578 1.71401V11.9997C0.642578 12.5915 1.12227 13.0711 1.71401 13.0711H28.2854C28.8772 13.0711 29.3569 12.5915 29.3569 11.9997V1.71401C29.3569 1.12227 28.8772 0.642578 28.2854 0.642578Z" stroke="#484848" stroke-width="1.5"/>
<path d="M27.8573 16.9287H18.4287C17.6003 16.9287 16.9287 17.6003 16.9287 18.4287V27.8573C16.9287 28.6857 17.6003 29.3573 18.4287 29.3573H27.8573C28.6857 29.3573 29.3573 28.6857 29.3573 27.8573V18.4287C29.3573 17.6003 28.6857 16.9287 27.8573 16.9287Z" stroke="#484848" stroke-width="1.5" stroke-miterlimit="14.336" stroke-linejoin="round" stroke-dasharray="4 3"/>
<path d="M23.7484 20.319C23.7484 19.9848 23.4774 19.7139 23.1432 19.7139C22.809 19.7139 22.5381 19.9848 22.5381 20.319V25.9659C22.5381 26.3001 22.809 26.571 23.1432 26.571C23.4774 26.571 23.7484 26.3001 23.7484 25.9659V20.319Z" fill="#484848"/>
<path d="M25.9659 22.5381H20.319C19.9848 22.5381 19.7139 22.809 19.7139 23.1432C19.7139 23.4774 19.9848 23.7484 20.319 23.7484H25.9659C26.3001 23.7484 26.571 23.4774 26.571 23.1432C26.571 22.809 26.3001 22.5381 25.9659 22.5381Z" fill="#484848"/>
<path d="M11.5711 16.9287H2.14258C1.31415 16.9287 0.642578 17.6003 0.642578 18.4287V27.8573C0.642578 28.6857 1.31415 29.3573 2.14258 29.3573H11.5711C12.3996 29.3573 13.0711 28.6857 13.0711 27.8573V18.4287C13.0711 17.6003 12.3996 16.9287 11.5711 16.9287Z" stroke="#484848" stroke-width="1.5" stroke-miterlimit="14.336" stroke-linejoin="round"/>
</g>
<defs>
<clipPath id="clip0_38_2368">
<rect width="30" height="30" fill="white"/>
</clipPath>
</defs>
</svg>
