<svg width="30" height="30" viewBox="0 0 30 30" fill="none" xmlns="http://www.w3.org/2000/svg">
<path opacity="0.4" d="M25.4145 14.1582L16.001 23.5718L18.5823 26.1531L27.9958 16.7395L25.4145 14.1582Z" fill="#FFC651"/>
<path d="M10.2146 27.2662H10.092C4.23343 25.947 0 20.6404 0 14.628C0 7.51158 5.79771 1.71387 12.9141 1.71387C17.2084 1.71387 21.2271 3.83058 23.6199 7.41944C23.8037 7.69544 23.7424 8.06358 23.4664 8.24744C23.19 8.43172 22.8219 8.37044 22.638 8.09444C20.46 4.8733 16.8094 2.94087 12.9137 2.94087C12.6073 2.94087 12.3313 2.94087 12.0244 2.97172H11.994C11.7793 3.06344 7.23943 5.48701 6.963 14.1373C6.77914 19.5664 9.141 24.4744 10.6444 26.2539C10.7974 26.4382 10.8283 26.7446 10.7057 26.9593C10.6136 27.1436 10.4293 27.2662 10.2146 27.2662ZM9.57043 3.40115C4.72371 4.8733 1.19614 9.35187 1.19614 14.628C1.19614 19.5052 4.29471 23.8612 8.74243 25.5789C7.23943 23.0636 5.64386 18.7689 5.76686 14.1064C5.95114 8.30915 7.97529 5.08844 9.57043 3.40115Z" fill="#484848"/>
<path d="M19.1414 11.0391H1.81C1.64738 11.0387 1.49154 10.9739 1.37654 10.8589C1.26155 10.7439 1.19674 10.588 1.19629 10.4254C1.19629 10.0881 1.47272 9.81212 1.81 9.81212H18.3743C17.0551 4.59726 13.9574 2.97169 13.9266 2.97169C13.6197 2.81826 13.4971 2.45012 13.6506 2.17412C13.804 1.86726 14.1721 1.74469 14.4477 1.89812C14.6016 1.95941 18.4051 3.89183 19.7243 10.3028C19.7547 10.4871 19.7243 10.671 19.6013 10.7935C19.4787 10.947 19.3253 11.0391 19.1414 11.0391Z" fill="#484848"/>
<path d="M12.9143 19.4439H1.81C1.47272 19.4439 1.19629 19.1679 1.19629 18.8306C1.19629 18.4933 1.47272 18.2169 1.81 18.2169H12.3314V2.32758C12.3314 1.98987 12.6074 1.71387 12.9447 1.71387C13.282 1.71387 13.5584 1.98987 13.5584 2.32758V18.861C13.5276 19.1679 13.2516 19.4439 12.9143 19.4439ZM12.4844 28.5236C12.3314 28.5236 12.178 28.4623 12.0859 28.3702C11.9633 28.2476 11.8716 28.0637 11.9016 27.8794L12.3006 22.266C12.3006 22.1126 12.3619 21.99 12.4849 21.8979L24.1411 10.2416C24.3867 9.99601 24.7549 9.99601 25 10.2416L29.8163 15.0574C29.9389 15.18 30.0001 15.3334 30.0001 15.4869C30.0001 15.6403 29.9389 15.7937 29.8159 15.9163L18.1596 27.5726C18.0656 27.663 17.9491 27.7266 17.8223 27.7569L12.6074 28.554C12.5461 28.524 12.5153 28.524 12.4849 28.524L12.4844 28.5236ZM13.4971 22.5729L13.1599 27.2049L17.4541 26.5603L28.5276 15.456L24.5706 11.499L13.4971 22.5729Z" fill="#484848"/>
<path d="M18.6196 26.7444C18.4661 26.7444 18.3127 26.6831 18.1901 26.5601L14.4479 22.8487C14.2023 22.6031 14.2023 22.2354 14.4479 21.9898C14.6934 21.7443 15.0611 21.7443 15.3067 21.9898L19.049 25.7321C19.2941 25.9777 19.2941 26.3458 19.049 26.591C18.9264 26.7136 18.773 26.7444 18.6196 26.7444Z" fill="#484848"/>
</svg>
