<svg width="30" height="30" viewBox="0 0 30 30" fill="none" xmlns="http://www.w3.org/2000/svg">
<g clip-path="url(#clip0_38_2354)">
<path opacity="0.4" d="M18.0001 27.0003C22.7341 27.0003 26.5716 23.1629 26.5716 18.4289C26.5716 13.6949 22.7341 9.85742 18.0001 9.85742C13.2661 9.85742 9.42871 13.6949 9.42871 18.4289C9.42871 23.1629 13.2661 27.0003 18.0001 27.0003Z" fill="#FE5A61"/>
<path d="M13.7697 21.0548C13.6099 21.0548 13.4183 20.9905 13.3223 20.8628L8.43443 15.7191C8.17858 15.4637 8.21072 15.0805 8.46615 14.8247C8.59061 14.7137 8.75309 14.6551 8.91973 14.661C9.08636 14.6669 9.24429 14.7369 9.36058 14.8564L13.7376 19.4893L21.6297 10.224C21.853 9.96854 22.2366 9.93683 22.5241 10.1601C22.7796 10.3838 22.8113 10.767 22.588 11.0545L14.2489 20.8311C14.1533 20.9588 13.9617 21.0227 13.7697 21.0548Z" fill="#484848"/>
<path d="M15.0159 30C14.4407 30 13.9299 29.7763 13.5784 29.3289C13.1627 28.818 12.5241 28.5621 11.853 28.5621C11.5016 28.5621 11.1501 28.6581 10.8309 28.818C10.575 28.9457 10.2874 29.0096 9.96814 29.0096C9.13757 29.0096 8.43428 28.4983 8.14671 27.6999C7.82743 26.7094 6.86914 26.0704 5.84657 26.166C5.27143 26.1981 4.72843 25.9744 4.31314 25.5591C4.13556 25.3662 3.99875 25.1394 3.9109 24.8923C3.82304 24.6453 3.78596 24.383 3.80186 24.1213C3.86614 23.0991 3.22671 22.1404 2.26843 21.8211C1.75714 21.6613 1.30971 21.246 1.11814 20.7347C0.926571 20.2234 0.958285 19.6804 1.21414 19.1691C1.44728 18.7225 1.5205 18.2095 1.42164 17.7155C1.32277 17.2215 1.05777 16.7762 0.670714 16.4537C0.223714 16.0701 0 15.5593 0 15.0159C0 14.4407 0.223714 13.9299 0.670714 13.5784C1.05788 13.2559 1.32294 12.8105 1.42181 12.3164C1.52068 11.8223 1.44739 11.3092 1.21414 10.8626C0.958285 10.3513 0.926571 9.77614 1.14986 9.26529C1.25871 9.01617 1.41668 8.79156 1.61432 8.60489C1.81196 8.41822 2.04522 8.27332 2.30014 8.17886C3.29057 7.85957 3.92957 6.90086 3.834 5.87871C3.80186 5.33529 3.96171 4.82443 4.34486 4.44086C4.72843 4.02557 5.27143 3.80229 5.87871 3.834C6.933 3.89786 7.85957 3.25886 8.17885 2.30014C8.30816 1.91928 8.55321 1.58832 8.87977 1.35351C9.20632 1.1187 9.59807 0.991759 10.0003 0.990429C10.2874 0.990429 10.575 1.05471 10.8626 1.182C11.1823 1.34186 11.5337 1.40571 11.8851 1.43786C12.5559 1.43786 13.1631 1.15029 13.6101 0.670714C13.9299 0.223714 14.4407 0 15.0159 0C15.591 0 16.1023 0.223714 16.4537 0.670714C17.1244 1.43786 18.2751 1.66114 19.1691 1.21414C19.425 1.08643 19.7126 1.02257 20.0319 1.02257C20.8624 1.02257 21.5653 1.53343 21.8533 2.33229C22.1726 3.32229 23.0991 3.96171 24.1534 3.86571C24.7286 3.834 25.2716 4.05771 25.6868 4.473C25.8644 4.6659 26.0011 4.89263 26.089 5.13961C26.1768 5.3866 26.214 5.64876 26.1981 5.91043C26.1338 6.933 26.7733 7.89129 27.7316 8.211C28.2746 8.40257 28.6581 8.754 28.8818 9.297C28.9903 9.54582 29.0408 9.81599 29.0297 10.0872C29.0185 10.3584 28.946 10.6235 28.8176 10.8626C28.5843 11.3092 28.511 11.8223 28.6099 12.3164C28.7088 12.8105 28.9738 13.2559 29.361 13.5784C29.5688 13.7564 29.7362 13.9767 29.852 14.2246C29.9677 14.4725 30.0291 14.7423 30.0321 15.0159C30.0321 15.591 29.8084 16.0701 29.361 16.4537C28.974 16.7763 28.7091 17.2216 28.6103 17.7156C28.5115 18.2096 28.5848 18.7226 28.818 19.1691C29.0734 19.6804 29.0734 20.2234 28.8818 20.7347C28.773 20.9838 28.615 21.2084 28.4174 21.3951C28.2197 21.5818 27.9865 21.7267 27.7316 21.8211C26.7416 22.1404 26.1021 23.0991 26.1981 24.1213C26.2298 24.6647 26.0704 25.1756 25.6868 25.5591C25.3033 25.9744 24.7286 26.1977 24.1534 26.166C23.0991 26.1021 22.1726 26.7411 21.8528 27.6999C21.7236 28.0807 21.4786 28.4116 21.1521 28.6464C20.8256 28.8812 20.434 29.0082 20.0319 29.0096C19.734 29.0074 19.4399 28.9421 19.1691 28.818C18.2747 28.3706 17.0927 28.5943 16.4537 29.361C16.0701 29.7767 15.5593 30 15.0159 30ZM11.853 27.3163C12.8756 27.3163 13.8339 27.7637 14.5046 28.5304C14.7604 28.8176 15.2396 28.8176 15.4633 28.5304C16.134 27.7633 17.0927 27.3163 18.1149 27.3163C18.6583 27.3163 19.2013 27.444 19.6804 27.6999C20.0319 27.8914 20.4476 27.6999 20.5749 27.3163C21.0861 25.7829 22.5557 24.792 24.1534 24.9201C24.3771 24.9201 24.5366 24.8559 24.6647 24.7286C24.7924 24.6004 24.8563 24.441 24.8241 24.249C24.6964 22.6517 25.6868 21.1504 27.2203 20.6709C27.4123 20.607 27.54 20.4793 27.6038 20.3194C27.6677 20.1279 27.6677 19.968 27.5717 19.7764C26.8371 18.3386 27.1886 16.5814 28.4027 15.5271C28.5621 15.3994 28.6264 15.24 28.6264 15.048C28.6264 14.856 28.5304 14.6966 28.4027 14.5689C27.1886 13.5146 26.8371 11.7574 27.5717 10.3196C27.6677 10.1597 27.6677 9.96814 27.6038 9.77614C27.5758 9.68939 27.5257 9.61141 27.4584 9.54982C27.3912 9.48822 27.3091 9.44512 27.2203 9.42471C25.6868 8.91386 24.6964 7.44386 24.8246 5.84657C24.8246 5.655 24.7924 5.49514 24.6647 5.36743C24.5366 5.23971 24.3771 5.17586 24.1851 5.17586H23.898C22.3641 5.17586 21.0223 4.21714 20.5431 2.77971C20.4154 2.42829 20.0001 2.23629 19.6487 2.39614C19.166 2.65005 18.6285 2.78175 18.0831 2.77971C17.0606 2.77971 16.1023 2.33229 15.4311 1.56557C15.1757 1.278 14.6966 1.278 14.4729 1.56557C13.8017 2.33229 12.8434 2.77971 11.8209 2.77971C11.2756 2.78168 10.7382 2.64998 10.2557 2.39614C9.90428 2.20457 9.48857 2.39614 9.36085 2.77971C8.85 4.31314 7.38 5.30357 5.78271 5.17543H5.71886C5.52728 5.17543 5.36743 5.23971 5.23971 5.36743C5.112 5.49514 5.04771 5.65457 5.07986 5.84657C5.20757 7.44386 4.21714 8.94557 2.68371 9.45686C2.49214 9.52114 2.36443 9.64843 2.30014 9.80829C2.23628 9.936 2.23628 10.0959 2.33228 10.2874C3.06728 11.7253 2.71586 13.4824 1.50171 14.5367C1.34186 14.6644 1.278 14.8243 1.278 15.0159C1.278 15.2079 1.34186 15.3673 1.50171 15.4954C2.71586 16.5497 3.06728 18.3069 2.33228 19.7443C2.23628 19.9041 2.23628 20.0957 2.30014 20.2556C2.36443 20.4154 2.52386 20.5749 2.68371 20.607C4.21714 21.1183 5.208 22.5879 5.07986 24.1856C5.07986 24.3771 5.112 24.537 5.23971 24.6647C5.36743 24.7924 5.52685 24.8563 5.71886 24.8563H6.006C7.54028 24.8563 8.88171 25.8146 9.36085 27.252C9.489 27.6039 9.90428 27.7954 10.2557 27.636C10.7666 27.444 11.31 27.3163 11.853 27.3163Z" fill="#484848"/>
</g>
<defs>
<clipPath id="clip0_38_2354">
<rect width="30" height="30" fill="white"/>
</clipPath>
</defs>
</svg>
